<?xml version="1.0" standalone="no"?>
<!DOCTYPE svg PUBLIC "-//W3C//DTD SVG 20010904//EN"
 "http://www.w3.org/TR/2001/REC-SVG-20010904/DTD/svg10.dtd">
<svg version="1.0" xmlns="http://www.w3.org/2000/svg"
 width="11036.000000pt" height="4592.000000pt" viewBox="0 0 11036.000000 4592.000000"
 preserveAspectRatio="xMidYMid meet">

<g transform="translate(0.000000,4592.000000) scale(0.100000,-0.100000)"
fill="#000000" stroke="none">
<path d="M22165 45910 c-296 -43 -469 -221 -425 -436 14 -66 4742 -10389 4790
-10458 36 -52 132 -145 190 -183 172 -115 371 -173 594 -173 112 0 196 13
1126 175 637 111 1036 185 1089 202 255 81 403 292 357 508 -11 53 -543 1224
-2236 4920 -1221 2667 -2235 4875 -2252 4907 -114 215 -442 420 -770 483 -110
21 -156 23 -1298 45 -1046 21 -1087 22 -1165 10z"/>
<path d="M64030 39680 c-1047 -68 -1948 -390 -2736 -977 -352 -263 -726 -624
-985 -953 -428 -542 -709 -1166 -824 -1827 -47 -269 -59 -426 -59 -753 0 -319
9 -450 49 -727 124 -839 466 -1560 1046 -2200 204 -225 496 -481 782 -684 803
-571 1667 -881 2652 -950 212 -15 694 -6 895 16 1128 124 2125 546 2925 1238
135 116 405 390 507 514 555 671 866 1391 973 2253 22 173 31 636 16 830 -70
915 -384 1688 -979 2410 -123 149 -502 527 -661 660 -803 667 -1684 1033
-2736 1135 -191 19 -676 27 -865 15z m750 -1685 c743 -86 1351 -386 1870 -921
305 -315 501 -633 630 -1024 92 -276 128 -493 137 -820 13 -507 -68 -898 -272
-1315 -349 -710 -1058 -1295 -1845 -1519 -520 -148 -1119 -172 -1645 -64 -407
83 -819 268 -1175 526 -636 464 -1007 1016 -1144 1702 -43 214 -51 317 -50
615 0 316 16 455 78 699 154 600 518 1120 1078 1538 473 355 1011 550 1648
598 157 12 526 4 690 -15z"/>
<path d="M53420 38695 l0 -835 1030 0 1030 0 0 -3555 0 -3555 925 0 925 0 0
3555 0 3555 1025 0 1025 0 0 835 0 835 -2980 0 -2980 0 0 -835z"/>
<path d="M68643 39523 c3 -5 796 -1947 1762 -4318 966 -2370 1770 -4343 1787
-4383 l30 -72 366 2 366 3 941 2435 c517 1340 945 2446 950 2459 9 19 150
-354 921 -2436 l910 -2458 369 0 369 0 1878 4380 c1032 2409 1877 4383 1878
4388 0 4 -426 7 -948 7 l-947 0 -1085 -2569 c-597 -1414 -1088 -2567 -1091
-2563 -3 4 -433 1160 -955 2570 l-949 2562 -310 0 -311 0 -983 -2542 c-541
-1399 -990 -2554 -997 -2568 -10 -20 -14 -22 -19 -10 -3 9 -462 1163 -1019
2565 l-1014 2550 -951 3 c-524 1 -950 -1 -948 -5z"/>
<path d="M81660 35140 l0 -4390 2720 0 2720 0 0 835 0 835 -1795 0 -1795 0 0
1135 0 1135 1743 2 1742 3 3 833 2 832 -1745 0 -1745 0 0 750 0 750 1795 0
1795 0 0 835 0 835 -2720 0 -2720 0 0 -4390z"/>
<path d="M88320 35140 l0 -4390 920 0 920 0 0 1605 c0 883 3 1605 8 1605 4 -1
551 -723 1216 -1605 l1208 -1605 1145 0 1145 0 -30 38 c-16 20 -655 835 -1421
1810 -765 975 -1391 1777 -1391 1781 0 4 46 25 102 45 388 144 767 396 1029
687 344 380 549 816 635 1346 25 156 30 536 10 713 -59 504 -240 937 -544
1300 -105 126 -306 319 -423 407 -505 379 -1225 588 -2219 643 -104 6 -651 10
-1247 10 l-1063 0 0 -4390z m2405 2710 c744 -56 1144 -288 1265 -736 28 -100
38 -334 21 -455 -48 -341 -211 -571 -511 -723 -277 -141 -628 -205 -1117 -206
l-223 0 0 1065 0 1065 213 0 c116 0 275 -5 352 -10z"/>
<path d="M40655 30859 c-1772 -271 -3210 -496 -3235 -505 -91 -35 -172 -148
-205 -286 -19 -79 -19 -252 -1 -339 32 -151 471 -1831 498 -1905 91 -254 282
-440 463 -452 66 -4 268 43 3205 743 1724 411 3146 753 3161 761 99 50 155
242 129 434 -6 47 -101 434 -211 860 -194 754 -201 778 -256 890 -47 95 -69
127 -128 186 -74 74 -134 105 -199 103 -17 -1 -1466 -221 -3221 -490z"/>
<path d="M78130 27903 c-439 -14 -866 -105 -1230 -259 -488 -208 -939 -571
-1210 -973 -313 -467 -429 -1069 -315 -1637 145 -720 676 -1310 1560 -1735
188 -90 261 -120 818 -335 674 -260 822 -328 1076 -497 136 -91 288 -242 353
-352 201 -340 163 -843 -89 -1180 -139 -187 -365 -338 -606 -405 -243 -68
-591 -67 -837 1 -292 82 -545 280 -667 523 -80 158 -142 415 -188 771 -34 259
-31 246 -58 240 -12 -3 -428 -88 -925 -189 -497 -101 -906 -187 -909 -190 -7
-7 27 -202 73 -415 124 -577 322 -1028 612 -1391 106 -133 316 -339 452 -444
436 -335 929 -527 1550 -602 204 -25 667 -26 870 -1 284 35 584 107 835 202
259 97 610 292 808 447 447 352 761 799 930 1325 85 262 124 497 134 798 36
1121 -496 1924 -1657 2503 -245 123 -392 183 -1001 412 -607 229 -705 269
-841 346 -334 188 -485 398 -464 641 13 144 69 270 168 378 147 161 338 265
579 316 140 30 453 33 599 6 360 -67 548 -224 860 -717 54 -85 102 -154 107
-153 10 2 1505 823 1515 832 9 8 -164 271 -284 433 -197 265 -462 546 -668
709 -359 285 -738 457 -1196 543 -184 34 -529 57 -754 49z"/>
<path d="M53910 23351 l0 -4391 1243 0 c1488 0 1737 9 2192 76 409 60 650 133
944 285 267 138 476 293 716 534 224 224 370 426 495 688 215 450 281 990 185
1512 -87 469 -298 874 -639 1224 -182 186 -359 321 -561 427 -49 26 -91 48
-93 50 -2 1 23 35 56 76 225 274 380 613 444 968 26 146 35 452 19 612 -57
549 -322 1124 -703 1523 -412 431 -921 661 -1673 755 -334 41 -385 43 -1517
47 l-1108 4 0 -4390z m2444 2720 c396 -70 636 -248 735 -546 43 -131 54 -229
48 -428 -6 -207 -30 -317 -102 -455 -57 -112 -133 -196 -238 -266 -192 -128
-408 -178 -829 -192 l-208 -7 0 963 0 963 238 -6 c178 -4 267 -10 356 -26z
m385 -3455 c354 -46 601 -123 766 -241 70 -50 197 -179 244 -248 48 -70 98
-181 123 -272 31 -114 31 -344 -1 -460 -82 -302 -321 -539 -656 -648 -274 -90
-526 -117 -1097 -117 l-358 0 0 1006 0 1006 428 -5 c306 -4 462 -10 551 -21z"/>
<path d="M60940 23350 l0 -4390 2720 0 2720 0 0 835 0 835 -1795 0 -1795 0 0
1140 0 1140 1740 0 1740 0 0 835 0 835 -1740 0 -1740 0 0 745 0 745 1795 0
1795 0 0 835 0 835 -2720 0 -2720 0 0 -4390z"/>
<path d="M68030 23351 l0 -4391 925 0 925 0 0 1607 c0 1408 2 1605 15 1593 8
-8 554 -730 1213 -1605 l1199 -1590 1142 -3 c627 -1 1141 0 1141 3 0 2 -639
817 -1420 1811 -781 993 -1420 1809 -1420 1813 0 5 35 21 78 36 824 299 1429
957 1635 1780 125 498 103 1074 -58 1535 -151 430 -399 782 -773 1093 -403
335 -995 556 -1747 652 -375 48 -389 48 -1652 52 l-1203 4 0 -4390z m2589
2695 c660 -89 1003 -329 1092 -760 23 -114 26 -346 4 -467 -86 -493 -455 -763
-1165 -854 -71 -10 -242 -19 -397 -22 l-273 -6 0 1068 0 1067 313 -5 c196 -3
355 -11 426 -21z"/>
<path d="M84055 24858 c-797 -1585 -1791 -3561 -2208 -4390 l-758 -1508 1007
2 1007 3 496 1003 495 1002 1765 -2 1766 -3 466 -1000 467 -1000 1934 -3 1933
-2 423 2212 c233 1217 426 2221 430 2231 5 13 313 -620 1076 -2212 l1069
-2231 340 2 340 3 1096 2223 c602 1223 1097 2218 1100 2211 2 -6 175 -1007
385 -2223 l382 -2211 1903 0 1903 0 496 1003 496 1002 1766 0 1765 0 469
-1005 469 -1005 1013 0 c558 0 1014 3 1013 8 0 4 -957 1978 -2127 4387 l-2127
4380 -415 2 -415 3 -1440 -2862 c-792 -1574 -1768 -3514 -2168 -4311 -401
-796 -731 -1447 -733 -1444 -2 2 -371 1932 -819 4288 -448 2356 -817 4294
-820 4307 l-5 22 -393 0 -392 0 -1354 -2738 c-744 -1505 -1357 -2741 -1360
-2745 -4 -4 -597 1227 -1317 2735 l-1309 2743 -396 3 -397 2 -5 -22 c-3 -13
-414 -1956 -913 -4318 -499 -2362 -910 -4298 -914 -4303 -4 -4 -952 1938
-2107 4315 l-2100 4323 -414 2 -414 3 -1450 -2882z m2314 -1217 c254 -541 460
-985 458 -987 -2 -2 -434 -3 -960 -2 l-956 3 415 840 c229 462 449 909 490
994 41 86 78 151 82 145 5 -5 217 -452 471 -993z m19771 0 l468 -991 -964 0
c-530 0 -964 2 -964 4 0 2 176 358 391 792 215 434 436 881 490 993 55 112
102 201 105 198 3 -3 217 -452 474 -996z"/>
<path d="M22365 26832 c-60 -4 -21061 -4541 -21190 -4577 -404 -115 -761 -369
-967 -690 -168 -261 -239 -570 -194 -845 13 -81 901 -3548 952 -3717 53 -176
164 -354 307 -490 105 -99 202 -166 342 -234 322 -156 691 -196 1077 -118 107
21 20683 6183 20786 6224 185 74 333 217 432 418 76 154 102 267 104 452 0 93
-4 173 -13 210 -52 232 -687 2671 -711 2732 -161 401 -542 663 -925 635z"/>
<path d="M35954 19516 c-86 -20 -1696 -621 -1764 -659 -134 -75 -248 -236
-286 -403 -22 -102 -15 -270 16 -369 23 -73 5591 -12560 5663 -12700 55 -106
173 -226 269 -273 167 -81 348 -75 498 17 25 16 365 270 755 565 467 353 731
560 772 603 97 103 167 255 193 417 18 107 8 310 -20 406 -23 82 -5296 11898
-5364 12020 -62 113 -195 242 -311 302 -147 76 -297 102 -421 74z"/>
<path d="M58070 16113 c-968 -51 -1796 -311 -2543 -799 -546 -357 -1059 -860
-1402 -1374 -415 -624 -639 -1286 -696 -2065 -15 -201 -6 -651 16 -835 102
-860 415 -1586 974 -2260 113 -136 396 -427 534 -548 696 -611 1497 -995 2380
-1141 348 -58 446 -65 882 -66 408 0 510 6 780 45 797 116 1509 417 2105 888
675 535 1144 1193 1359 1908 148 492 211 1023 211 1787 l0 327 -2100 0 -2100
0 0 -835 0 -835 1090 0 c935 0 1090 -2 1090 -14 0 -27 -62 -191 -109 -291
-244 -509 -827 -991 -1447 -1194 -272 -89 -507 -124 -829 -124 -311 0 -556 35
-835 120 -685 207 -1378 718 -1749 1288 -212 326 -332 660 -392 1095 -18 126
-18 581 -1 720 81 655 339 1172 818 1641 250 244 496 420 789 564 325 160 629
250 1020 302 165 21 685 25 845 5 547 -68 1029 -275 1475 -633 215 -172 504
-465 724 -732 35 -43 68 -76 73 -75 16 6 1338 1181 1338 1190 0 16 -519 529
-669 662 -708 625 -1339 961 -2158 1151 -457 106 -1000 153 -1473 128z"/>
<path d="M74920 16099 c-908 -65 -1736 -342 -2453 -821 -606 -405 -1154 -965
-1496 -1529 -312 -515 -488 -1032 -568 -1669 -24 -193 -24 -773 0 -990 98
-876 380 -1569 905 -2225 112 -140 463 -495 607 -614 705 -584 1489 -966 2320
-1130 365 -72 622 -96 1040 -95 354 1 517 12 825 60 1079 165 2083 654 2823
1374 604 586 1002 1273 1197 2065 88 357 115 600 115 1035 0 213 -5 379 -13
455 -98 878 -412 1611 -983 2296 -125 150 -432 459 -589 593 -848 725 -1797
1113 -2925 1196 -161 11 -635 11 -805 -1z m752 -1674 c705 -68 1273 -315 1786
-777 498 -449 793 -987 894 -1629 19 -126 22 -182 22 -449 0 -343 -14 -471
-78 -724 -197 -766 -768 -1447 -1534 -1830 -444 -222 -915 -326 -1477 -326
-750 0 -1392 226 -1980 697 -137 110 -352 318 -457 443 -163 193 -317 452
-413 691 -235 584 -257 1355 -55 1959 130 388 345 728 659 1040 548 546 1182
841 1951 909 156 14 523 12 682 -4z"/>
<path d="M63880 11565 l0 -4395 920 0 920 0 2 1610 3 1610 1215 -1610 1215
-1610 1143 0 1143 0 -54 68 c-348 438 -2798 3564 -2795 3567 2 2 55 24 119 48
1162 449 1816 1553 1654 2792 -57 433 -216 829 -468 1163 -89 118 -280 318
-407 425 -451 381 -1121 611 -2015 691 -311 28 -652 36 -1627 36 l-968 0 0
-4395z m2590 2691 c557 -76 877 -256 1025 -580 115 -250 106 -638 -19 -901
-201 -422 -716 -624 -1588 -625 l-168 0 0 1066 0 1066 313 -5 c210 -3 353 -10
437 -21z"/>
<path d="M81450 13053 c0 -1919 4 -2945 10 -3018 39 -410 133 -764 295 -1102
211 -442 504 -803 920 -1134 671 -534 1517 -802 2445 -775 875 25 1608 283
2243 788 611 488 995 1104 1140 1833 66 328 61 66 64 3343 l3 2972 -920 0
-919 0 -4 -2782 c-4 -2985 -1 -2839 -52 -3128 -159 -912 -706 -1360 -1660
-1360 -353 0 -605 53 -860 180 -148 74 -273 162 -389 276 -275 270 -388 557
-458 1159 -8 72 -12 868 -15 2878 l-4 2777 -919 0 -920 0 0 -2907z"/>
<path d="M90230 11566 l0 -4396 920 0 920 0 0 1684 0 1683 383 6 c303 4 419 9
561 26 888 107 1573 409 2056 907 368 379 582 840 656 1411 21 158 24 531 6
688 -16 141 -55 331 -93 464 -186 641 -676 1227 -1292 1546 -356 184 -724 279
-1282 330 -367 33 -517 37 -1662 42 l-1173 5 0 -4396z m2510 2719 c630 -70
1011 -283 1145 -640 96 -255 81 -611 -35 -851 -149 -307 -461 -489 -970 -564
-155 -23 -509 -43 -685 -38 l-120 3 -3 1059 -2 1059 262 -6 c145 -3 328 -13
408 -22z"/>
</g>
</svg>
